<?xml version="1.0" encoding="UTF-8" standalone="no"?>
<!-- Created with Inkscape (http://www.inkscape.org/) -->

<svg
   version="1.1"
   id="svg1"
   width="64"
   height="64"
   viewBox="0 0 2048 2048"
   sodipodi:docname="d-pad.svg"
   xml:space="preserve"
   inkscape:version="1.4 (e7c3feb100, 2024-10-09)"
   xmlns:inkscape="http://www.inkscape.org/namespaces/inkscape"
   xmlns:sodipodi="http://sodipodi.sourceforge.net/DTD/sodipodi-0.dtd"
   xmlns="http://www.w3.org/2000/svg"
   xmlns:svg="http://www.w3.org/2000/svg"><defs
     id="defs1" /><sodipodi:namedview
     id="namedview1"
     pagecolor="#ffffff"
     bordercolor="#666666"
     borderopacity="1.0"
     inkscape:showpageshadow="2"
     inkscape:pageopacity="0.0"
     inkscape:pagecheckerboard="0"
     inkscape:deskcolor="#d1d1d1"
     showgrid="false"
     inkscape:zoom="4.328125"
     inkscape:cx="41.01083"
     inkscape:cy="48.981949"
     inkscape:window-width="1240"
     inkscape:window-height="755"
     inkscape:window-x="-5"
     inkscape:window-y="22"
     inkscape:window-maximized="0"
     inkscape:current-layer="g1"
     showguides="true"><inkscape:page
       x="0"
       y="0"
       width="2048"
       height="2048"
       id="page2"
       margin="0"
       bleed="0" /></sodipodi:namedview><g
     inkscape:groupmode="layer"
     inkscape:label="Image"
     id="g1"><path
       style="fill:#dcc593;fill-opacity:1;stroke-width:2.6851"
       d="m 977.97196,1958.3018 c -32.9805,-2.3636 -68.98886,-7.2012 -98.93346,-13.2942 -63.1875,-12.8556 -132.19712,-36.5442 -145.651,-49.9984 l -7.81518,-7.8156 v -256.976 -256.9784 l 34.90708,-34.6322 34.90536,-34.6322 v 269.7392 c 0,253.5878 0.28878,269.9758 4.6983,273.7128 4.63532,3.921 60.67416,20.4638 94.65002,27.9434 80.41842,17.6954 189.68602,16.6398 271.19412,-2.6264 36.203,-8.5536 75.1978,-20.1592 81.2746,-24.1878 4.4936,-2.9756 4.7456,-17.8768 4.6802,-274.0542 v -270.9052 l 34.7426,34.9054 c 27.8696,28.001 34.8344,36.4996 35.2102,42.9628 0.2624,4.4304 0.3412,120.03 0.2624,256.8918 l -0.2888,248.837 -6.8152,8.0964 c -9.0262,10.7256 -50.7234,26.9822 -104.1228,40.5942 -76.7154,19.5522 -160.3062,27.6044 -232.75666,22.4148 z m 31.52544,-176.0848 c -6.5156,-7.7526 -20.90738,-25.5742 -31.97704,-39.6064 -11.07246,-14.0294 -36.44716,-46.0486 -56.3884,-71.153 -41.28988,-51.9812 -43.27254,-55.1014 -40.92998,-64.4298 3.85802,-15.3686 27.65704,-23.1372 38.29592,-12.4984 2.73122,2.7316 21.76106,26.394 42.28776,52.5802 20.5295,26.189 41.37674,52.6486 46.32984,58.8046 4.9503,6.1532 10.7491,13.6064 12.8842,16.5584 3.803,5.2576 4.0078,5.2026 9.7934,-2.6604 3.2488,-4.4148 15.5186,-20.125 27.2632,-34.9056 11.7473,-14.7804 30.4121,-38.3536 41.4762,-52.383 29.6269,-37.5606 35.1131,-42.9628 43.63,-42.9628 11.5004,0 21.0495,5.5572 22.7119,13.2152 0.814,3.8082 2.022,8.5932 2.6708,10.6312 1.497,4.7428 7.0594,-2.6264 -99.6056,131.89 -13.4675,16.984 -27.8858,35.4098 -32.0378,40.9486 -4.152,5.536 -9.1262,10.069 -11.0514,10.069 -1.9169,0 -8.8346,-6.3452 -15.353,-14.0978 z M 126.53088,1323.4718 c -16.19402,-16.1932 -43.567261,-103.7104 -54.755881,-175.0604 -19.39272,-123.67 -1.79356,-274.34307 44.820701,-383.71853 10.33648,-24.25334 -15.50718,-22.1735 286.8962,-23.0926 l 267.29826,-0.81424 28.0623,28.71022 c 15.4343,15.78902 31.38492,31.75922 35.44644,35.49108 4.06102,3.72938 7.38416,7.4875 7.3844,8.35156 0,0.86654 -128.02506,1.26064 -284.49934,0.86654 l -284.49986,-0.7089 -5.34966,18.1472 c -18.39382,62.39708 -25.47682,99.4063 -30.10718,157.30984 -6.15152,76.92523 1.9145,154.12383 24.78626,237.26303 l 8.2663,30.0472 14.63692,1.8382 c 8.05042,0.998 136.65252,1.2868 285.78306,0.6302 l 271.1456,-1.208 -8.75682,9.6094 c -4.81626,5.284 -20.23572,21.3908 -34.26562,35.788 l -25.50954,26.181 H 402.73988 132.1661 Z m 1220.52892,-21.887 c -14.778,-15.1378 -30.2518,-31.3076 -34.3882,-35.9324 l -7.519,-8.4118 273.4082,0.788 c 150.3764,0.4464 279.152,0 286.1718,-0.683 12.6846,-1.4708 12.7846,-1.5494 16.8396,-15.2032 18.7934,-63.2036 27.4548,-115.7784 29.9076,-181.5396 2.965,-79.47557 -7.2696,-155.85993 -30.3068,-226.20677 l -6.8126,-20.79714 -283.3618,-0.68286 -283.3588,-0.68286 33.4952,-34.90536 33.495,-34.90562 h 268.3264 c 248.8924,0 268.8334,0.34156 275.349,4.60138 11.8102,7.74206 37.3374,78.25424 48.8772,135.02328 17.7322,87.2282 21.4064,170.53555 11.1904,253.74015 -7.871,64.1092 -39.5538,168.3558 -57.331,188.6278 -3.8712,4.4174 -20.406,4.701 -275.617,4.701 H 1373.9264 Z M 390.73428,1174.0382 c -4.72926,-2.5736 -40.76142,-31.88 -80.07158,-65.11 -39.30992,-33.227 -74.40838,-62.875 -77.99572,-65.8844 -3.5876,-3.01 -6.52258,-6.9098 -6.52258,-8.6694 0,-1.7596 37.72656,-34.64019 83.83666,-73.06747 63.64284,-53.04238 85.56602,-69.87144 91.01534,-69.87144 4.85518,0 9.87494,3.07278 15.51164,9.4915 8.82028,10.04524 9.97558,14.64388 5.69,22.65388 -2.3163,4.32798 -58.52394,54.06384 -82.01808,72.57368 -34.13524,26.89565 -44.38124,36.02425 -43.68176,38.92905 0.4412,1.8384 27.98794,25.8816 61.21598,53.4494 33.22806,27.5678 61.73404,53.2234 63.34616,57.0132 3.97328,9.3414 1.8461,18.2892 -6.28338,26.4174 -8.00704,8.0074 -12.47208,8.3906 -24.04268,2.0746 z m 1245.66692,0.499 c -3.2908,-2.3112 -7.7894,-7.6844 -9.9954,-11.9522 -7.3642,-14.2392 -5.2606,-16.4742 89.6862,-95.2118 l 38.6534,-32.056 -10.4604,-9.134 c -5.7516,-5.024 -19.521,-16.527 -30.5986,-25.5614 -49.2158,-40.14471 -88.41,-74.81113 -89.9044,-79.52281 -2.3898,-7.53732 5.3864,-23.8357 13.042,-27.32614 13.0972,-5.9666 13.9454,-5.37842 118.31,81.85252 50.8782,42.52943 66.8408,56.68483 67.0352,59.45023 0,1.4708 -19.7312,19.4184 -44.0764,39.869 -136.9776,115.0586 -128.3082,108.9658 -141.6916,99.5926 z M 759.80696,733.67429 725.57232,699.36505 V 442.39707 185.42935 l 7.96588,-9.07112 c 16.2483,-18.5071 102.14102,-44.48336 189.38756,-57.27568 45.55222,-6.67874 152.92934,-6.65766 201.38354,0 48.9375,6.7677 88.6701,15.57882 126.1991,27.99042 46.6554,15.43182 61.9742,22.79318 66.7828,32.09282 4.906,9.48852 4.7404,-1.15554 4.5356,292.72946 l -0.2628,228.96418 -34.2356,33.42412 -34.233,33.42684 -1.3396,-271.62746 -1.3394,-271.62498 -15.2138,-5.89326 c -29.7526,-11.52398 -89.6285,-25.68724 -129.5816,-30.65372 -30.1994,-3.7502 -127.9616,-3.80522 -158.9173,0 -41.33968,4.96648 -92.21004,16.2959 -134.61604,29.984 l -16.76858,5.41262 -0.68286,272.3604 -0.68288,272.36288 z M 743.0255,89.826034 c -4.4306,2.02234 -16.30234,7.3772 -26.38204,11.891576 -25.04948,11.2221 33.26722,-15.030036 26.38204,-11.891576 z m 563.7215,1.4391 c -1.9698,0 -4.3044,-1.20808 -5.2158,-2.6814 -1.103,-1.78586 12.3328,2.6814 5.2158,2.6814 z M 887.8915,473.49969 c -6.32924,-6.83068 -7.84964,-11.29274 -6.67326,-19.56028 0.81422,-5.71454 137.06926,-180.4126 142.09326,-182.18286 1.1818,-0.42012 8.3463,7.44018 15.9414,17.45144 7.5953,10.014 28.3662,36.33158 46.1589,58.48404 59.5659,74.16248 80.5154,103.26134 80.5154,111.84144 0,10.95144 -10.6388,21.07028 -22.1548,21.07028 -6.886,0 -11.1983,-2.33736 -18.5178,-10.06902 -10.8542,-11.45558 -66.7617,-81.58952 -86.716,-108.7843 -7.2984,-9.9483 -13.9454,-18.07134 -14.7674,-18.053 -0.8142,0.0272 -4.315,4.38324 -7.7606,9.70144 -8.2175,12.67682 -94.2508,119.53098 -99.65054,123.76178 -7.49792,5.87762 -21.2698,4.1049 -28.46856,-3.66096 z"
       id="path1"
       sodipodi:nodetypes="csscccccsssssscssscssccsssssssssssssssssssssscsssscssscsscsscccssscssssscccccsssssscsssssssssssssssssscssssssssccccsssssscccccssssccccssssssssssssssscsss" /></g></svg>
