<?xml version="1.0" encoding="UTF-8" standalone="no"?>
<!-- Created with Inkscape (http://www.inkscape.org/) -->

<svg
   version="1.1"
   id="svg1"
   width="128"
   height="128"
   viewBox="0 0 2048 2048"
   sodipodi:docname="dpad-store.svg"
   xml:space="preserve"
   inkscape:version="1.4.2 (ebf0e940, 2025-05-08)"
   inkscape:dataloss="true"
   xmlns:inkscape="http://www.inkscape.org/namespaces/inkscape"
   xmlns:sodipodi="http://sodipodi.sourceforge.net/DTD/sodipodi-0.dtd"
   xmlns="http://www.w3.org/2000/svg"
   xmlns:svg="http://www.w3.org/2000/svg"><defs
     id="defs1" /><sodipodi:namedview
     id="namedview1"
     pagecolor="#ffffff"
     bordercolor="#666666"
     borderopacity="1.0"
     inkscape:showpageshadow="2"
     inkscape:pageopacity="0.0"
     inkscape:pagecheckerboard="0"
     inkscape:deskcolor="#d1d1d1"
     showgrid="false"
     inkscape:zoom="4.328125"
     inkscape:cx="47.942238"
     inkscape:cy="79.133574"
     inkscape:window-width="1920"
     inkscape:window-height="1022"
     inkscape:window-x="0"
     inkscape:window-y="30"
     inkscape:window-maximized="1"
     inkscape:current-layer="g1"><inkscape:page
       x="0"
       y="0"
       width="2048"
       height="2048"
       id="page2"
       margin="0"
       bleed="0" /></sodipodi:namedview><g
     inkscape:groupmode="layer"
     inkscape:label="Image"
     id="g1"><path
       style="fill:#2e2e2e;fill-opacity:1;stroke:#696969;stroke-width:16;stroke-linecap:round;stroke-linejoin:round;stroke-dasharray:none;stroke-opacity:1;paint-order:markers fill stroke"
       d="M 203.93794,1995.3303 C 93.58165,1967.4796 12.930218,1856.9198 25.845861,1742.7577 21.376365,1245.7702 21.212225,748.63343 26.940597,251.65689 39.930116,140.36793 144.55282,40.388371 260.05792,50.282949 c 492.7659,-6.597634 985.69758,-3.960181 1478.50548,-1.625996 95.2527,-6.452834 213.0559,16.077591 253.6552,113.644697 49.7187,90.73212 24.0576,199.99495 32.1542,299.32448 -0.7303,447.83785 4.4936,895.81397 -3.6593,1343.56447 -14.7794,107.2282 -112.6996,207.3444 -226.6296,193.0642 -521.4884,2.9219 -1043.10524,6.0191 -1564.55836,-0.2448 l -12.06745,-0.7891 z"
       id="path2" /><path
       style="fill:#dcc593;fill-opacity:1;stroke-width:1.08329"
       d="m 1004.3423,1759.3803 c -13.30583,-0.9536 -27.83323,-2.9053 -39.91423,-5.3635 -25.4927,-5.1865 -53.3343,-14.7436 -58.7622,-20.1716 l -3.153,-3.1532 v -103.6757 -103.6767 l 14.0831,-13.9722 14.0824,-13.9722 v 108.825 c 0,102.3088 0.1165,108.9204 1.8955,110.4281 1.8701,1.5819 24.4787,8.256 38.1861,11.2736 32.44443,7.1392 76.52793,6.7133 109.41203,-1.0596 14.6059,-3.4509 30.3381,-8.1331 32.7898,-9.7584 1.8129,-1.2005 1.9146,-7.2123 1.8882,-110.5659 v -109.2954 l 14.0167,14.0824 c 11.2439,11.2969 14.0538,14.7256 14.2054,17.3332 0.1059,1.7874 0.1377,48.4255 0.1059,103.6417 l -0.1165,100.3921 -2.7496,3.2665 c -3.6416,4.3272 -20.4641,10.8858 -42.0078,16.3775 -30.9505,7.8883 -64.6748,11.1369 -93.9046,9.0432 z m 12.7188,-71.0406 c -2.6287,-3.1277 -8.435,-10.3178 -12.901,-15.979 -4.46713,-5.6601 -14.70443,-18.5781 -22.74963,-28.7063 -16.6582,-20.9716 -17.4581,-22.2304 -16.513,-25.9939 1.5565,-6.2004 11.1581,-9.3346 15.4503,-5.0424 1.1019,1.102 8.7794,10.6485 17.0608,21.2132 8.28253,10.5658 16.69323,21.2408 18.69153,23.7244 1.9972,2.4825 4.3367,5.4895 5.1981,6.6804 1.5343,2.1212 1.6169,2.099 3.9511,-1.0733 1.3107,-1.7811 6.2609,-8.1193 10.9992,-14.0825 4.7394,-5.9631 12.2696,-15.4736 16.7334,-21.1337 11.9528,-15.1536 14.1662,-17.3331 17.6023,-17.3331 4.6398,0 8.4923,2.242 9.163,5.3316 0.3284,1.5364 0.8158,3.4669 1.0775,4.2891 0.604,1.9135 2.8481,-1.0596 -40.1854,53.2104 -5.4334,6.8521 -11.2504,14.2859 -12.9255,16.5205 -1.6751,2.2335 -3.6819,4.0623 -4.4586,4.0623 -0.7734,0 -3.5643,-2.5599 -6.1941,-5.6877 z M 660.83247,1503.2612 c -6.5334,-6.5331 -17.577,-41.8415 -22.091,-70.6273 -7.8239,-49.8941 -0.7236,-110.6824 18.0827,-154.8094 4.1702,-9.7849 -6.2563,-8.9458 115.7469,-9.3166 l 107.8402,-0.3285 11.3216,11.583 c 6.2269,6.37 12.6621,12.8131 14.3007,14.3187 1.6384,1.5046 2.9791,3.0208 2.9792,3.3694 0,0.3496 -51.6511,0.5086 -114.7799,0.3496 l -114.7801,-0.286 -2.1583,7.3214 c -7.4209,25.1738 -10.2785,40.105 -12.1466,63.4659 -2.4818,31.0351 0.7724,62.1805 9.9999,95.7226 l 3.335,12.1224 5.9052,0.7416 c 3.2479,0.4027 55.1318,0.5192 115.2978,0.2543 l 109.3924,-0.4874 -3.5329,3.8769 c -1.9431,2.1318 -8.164,8.63 -13.8243,14.4385 l -10.2917,10.5626 h -109.1616 -109.1617 z m 492.41653,-8.8302 c -5.9621,-6.1073 -12.2049,-12.6309 -13.8737,-14.4968 l -3.0335,-3.3937 110.3052,0.3179 c 60.6686,0.1801 112.6225,0 115.4546,-0.2755 5.1176,-0.5934 5.1579,-0.6251 6.7939,-6.1337 7.5821,-25.4992 11.0765,-46.7102 12.0661,-73.2413 1.1962,-32.064 -2.9329,-62.8809 -12.2272,-91.262 l -2.7485,-8.3905 -114.3209,-0.2755 -114.3198,-0.2755 13.5135,-14.0824 13.5134,-14.0825 h 108.255 c 100.4144,0 108.4595,0.1378 111.0882,1.8564 4.7648,3.1235 15.0636,31.5713 19.7193,54.4745 7.154,35.1918 8.6363,68.8017 4.5147,102.3702 -3.1755,25.8646 -15.9578,67.9224 -23.1299,76.101 -1.5618,1.7822 -8.2327,1.8966 -111.1964,1.8966 h -109.5348 z m -385.82493,-51.4581 c -1.908,-1.0383 -16.445,-12.8618 -32.3045,-26.2683 -15.8594,-13.4053 -30.0197,-25.3666 -31.467,-26.5808 -1.4474,-1.2143 -2.6315,-2.7877 -2.6315,-3.4976 0,-0.7099 15.2206,-13.9754 33.8235,-29.4787 25.6764,-21.3997 34.5212,-28.1893 36.7197,-28.1893 1.9588,0 3.984,1.2397 6.2581,3.8293 3.5585,4.0527 4.0246,5.908 2.2956,9.1396 -0.9345,1.7461 -23.6112,21.8118 -33.0898,29.2795 -13.7717,10.8509 -17.9054,14.5338 -17.6232,15.7057 0.178,0.7417 11.2916,10.4418 24.6973,21.5639 13.4057,11.1221 24.9063,21.4728 25.5567,23.0017 1.603,3.7688 0.7448,7.3787 -2.535,10.658 -3.2304,3.2306 -5.0318,3.3852 -9.6999,0.837 z m 502.55833,0.2013 c -1.3276,-0.9324 -3.1426,-3.1002 -4.0326,-4.822 -2.971,-5.7448 -2.1223,-6.6465 36.1835,-38.4128 l 15.5945,-12.9328 -4.2202,-3.6851 c -2.3204,-2.0269 -7.8756,-6.6677 -12.3448,-10.3126 -19.8559,-16.1962 -35.6686,-30.1822 -36.2715,-32.0831 -0.9642,-3.0409 2.1731,-9.6164 5.2617,-11.0246 5.284,-2.4072 5.6262,-2.1699 47.7316,33.023 20.5266,17.1583 26.9666,22.8692 27.045,23.9849 0,0.5934 -7.9604,7.8343 -17.7824,16.085 -55.2629,46.4198 -51.7653,43.9617 -57.1648,40.1801 z m -353.65773,-177.864 -13.8118,-13.8419 v -103.6725 -103.6724 l 3.2138,-3.6597 c 6.5553,-7.4666 41.2083,-17.9466 76.4075,-23.1076 18.37783,-2.6945 61.69863,-2.686 81.24723,0 19.7436,2.7304 35.7735,6.2852 50.9144,11.2926 18.8229,6.2259 25.0032,9.1958 26.9432,12.9477 1.9793,3.8281 1.9125,-0.4662 1.8299,118.1003 l -0.106,92.3745 -13.8122,13.4848 -13.8112,13.4859 -0.5404,-109.5868 -0.5404,-109.5858 -6.1379,-2.3776 c -12.0036,-4.6493 -36.1602,-10.3634 -52.2791,-12.3671 -12.1838,-1.513 -51.6255,-1.5352 -64.11443,0 -16.6783,2.0037 -37.2017,6.5745 -54.3102,12.0969 l -6.7652,2.1837 -0.2755,109.8825 -0.2755,109.8835 z m -200.1976,-32.0291 c -12.9251,-10.6611 -24.3887,-24.4935 -35.1508,-42.4126 -10.8182,-18.0123 -16.0624,-32.8269 -27.5761,-77.901 -8.9739,-35.1315 -12.7702,-44.8305 -24.5609,-62.7549 -16.0567,-24.4088 -27.2695,-43.5686 -26.152,-44.6864 0.2129,-0.2119 9.3852,-0.4556 20.3826,-0.5404 l 19.9953,-0.1589 4.0343,6.3393 c 8.2014,12.8851 17.1761,19.6302 24.332,18.2878 5.0951,-0.9536 11.899,-7.9392 17.0788,-17.5292 l 4.1372,-7.6594 110.0784,-0.106 c 94.0915,-0.106 109.6062,0.1271 106.8284,1.3933 -1.7875,0.8159 -6.5771,2.9763 -10.6437,4.7976 -10.1061,4.5275 -20.1783,14.5487 -22.9629,22.8492 -2.9425,8.7698 -3.4235,23.7359 -2.9249,90.996 0.2448,33.0674 0.2088,59.8792 -0.085,59.5804 -0.2903,-0.2966 -2.0112,-6.6645 -3.8241,-14.1492 -6.3571,-26.245 -17.4529,-49.1312 -33.9027,-69.9269 -21.8851,-27.668 -45.1811,-45.1929 -74.0705,-55.7216 -8.9068,-3.2464 -10.8733,-3.5611 -22.7491,-3.6353 -11.3837,-0.1059 -13.6683,0.2225 -18.3805,2.4073 -11.949,5.5287 -19.2337,14.2435 -24.1185,28.8536 -2.7189,8.132 -2.9157,9.9936 -2.9253,27.6764 -0.011,20.6379 1.5755,29.9831 8.1164,47.8047 9.7099,26.4547 23.135,45.4831 44.8677,63.595 15.2177,12.6818 29.3053,20.8541 44.438,25.7788 l 7.5832,2.4688 h -37.4336 -37.4335 z m 133.3754,3.2783 c 12.3877,-4.2234 16.9436,-8.7709 21.1791,-21.1433 l 2.482,-7.2494 -0.2204,15.4291 -0.2204,15.4302 h -15.1661 -15.166 z m 323.90973,-12.9562 0.1059,-15.4365 1.9294,6.7461 c 3.7105,12.9721 9.6345,18.7127 22.8258,22.1181 l 7.0471,1.8182 -15.978,0.1059 -15.979,0.106 z m 83.3365,12.2993 c 57.8481,-21.5936 98.7085,-78.788 98.7816,-138.2699 0,-20.8794 -5.0413,-41.5628 -12.9868,-53.0112 -12.0905,-17.4221 -36.1062,-19.412 -63.5782,-5.267 -26.5925,13.6914 -56.0649,40.4397 -74.0401,67.1954 -6.6582,9.9099 -15.7682,27.6255 -20.2215,39.3198 -3.398,8.9245 -9.2032,29.6726 -10.6113,37.9233 -0.2543,1.4886 -0.5298,-28.2475 -0.6145,-66.0808 -0.106,-37.8343 -0.6146,-71.5989 -1.1761,-75.0318 -1.5501,-9.4586 -6.1401,-18.6713 -11.7758,-23.6321 -4.751,-4.1821 -20.6697,-12.9149 -23.541,-12.9149 -0.7947,0 -1.7366,-0.4874 -2.1043,-1.0818 -0.445,-0.7205 36.3732,-1.0606 109.3568,-1.0171 l 110.0267,0.1059 3.8938,6.1624 c 6.8892,10.9027 14.4681,17.5376 20.035,17.5376 4.4109,0 10.9642,-5.8932 18.3725,-16.5205 l 4.342,-6.2291 h 19.9121 c 10.9515,0 20.7258,-0.3072 21.7207,-0.6887 2.6828,-1.0277 -1.8966,7.4963 -15.8699,29.5497 -19.7732,31.2047 -24.7234,42.8651 -33.9924,80.0711 -7.2388,29.057 -14.2498,50.8614 -20.5319,63.8578 -9.9735,20.6347 -28.8769,44.8655 -44.2615,56.7345 l -5.7957,4.4713 h -36.7324 l -36.7314,-0.106 z M 967.99977,1160.344 c -2.5535,-2.7558 -3.1669,-4.556 -2.6923,-7.8915 0.3285,-2.3055 55.29993,-72.7866 57.32683,-73.5008 0.4768,-0.1695 3.3673,3.0017 6.4315,7.0407 3.0643,4.0401 11.4442,14.6578 18.6226,23.5951 24.0316,29.9205 32.4836,41.6603 32.4836,45.1219 0,4.4183 -4.2922,8.5007 -8.9383,8.5007 -2.7781,0 -4.5179,-0.943 -7.4709,-4.0623 -4.3791,-4.6217 -26.9347,-32.9169 -34.9852,-43.8885 -2.9445,-4.0136 -5.6262,-7.2908 -5.9578,-7.2834 -0.3285,0.011 -1.7409,1.7684 -3.131,3.914 -3.3153,5.1144 -38.02503,48.2242 -40.20353,49.9311 -3.025,2.3713 -8.5812,1.6561 -11.4855,-1.477 z M 798.25717,968.69636 c -8.211,-1.98983 -14.0606,-5.07099 -19.9718,-10.51918 -5.602,-5.16424 -7.4089,-8.26765 -9.0686,-15.57641 -3.3144,-14.59632 0,-28.83982 8.6925,-37.32679 13.9449,-13.61942 42.7131,-17.94661 67.3411,-10.13033 4.9218,1.56283 0.9695,-16.72813 -4.8778,-22.57578 -4.5912,-4.59101 -10.1306,-6.17927 -21.5554,-6.17927 -10.7559,0 -20.3464,2.56622 -28.1916,7.54397 -2.8507,1.80865 -5.5319,3.28248 -5.958,3.27506 -0.819,0 -8.8995,-20.28397 -8.8995,-22.3236 0,-1.71964 11.0449,-7.35113 21.1242,-10.76923 12.4872,-4.23501 30.9814,-4.94809 43.8626,-1.68998 14.9046,3.76881 25.8597,11.92414 31.4045,23.37785 4.5791,9.45963 5.3102,17.27485 5.654,60.43869 l 0.3253,40.89429 h -13.812 l -13.812,-0.001 -0.011,-4.60373 c -0.01,-2.53232 -0.3072,-5.69401 -0.6643,-7.02586 -0.6262,-2.3363 -0.8275,-2.26531 -5.6724,2.0089 -12.396,10.93241 -29.6243,15.12928 -45.9065,11.18246 z m 32.9598,-24.14709 c 5.8321,-2.82581 12.6599,-9.35156 14.5855,-13.94046 0.8042,-1.91778 1.4626,-6.37953 1.4626,-9.91524 0,-6.25874 -0.095,-6.46324 -3.5207,-7.75271 -1.9363,-0.73108 -9.1992,-1.56495 -16.1396,-1.86056 -11.7614,-0.49799 -13.0195,-0.34965 -18.5119,2.16148 -9.0525,4.14494 -13.274,12.55139 -10.5583,21.02671 2.8848,9.00297 10.6283,13.7275 21.3078,13.00065 3.703,-0.25429 8.792,-1.4696 11.3746,-2.71987 z m 114.33,24.13861 c -21.6719,-5.25005 -37.5974,-22.59484 -42.4134,-46.19308 -7.63,-37.38718 10.2308,-72.30456 41.1674,-80.48003 9.4946,-2.509 21.2704,-2.31193 29.5899,0.49799 6.37,2.14982 18.5686,9.38547 20.1568,11.95593 2.2601,3.6565 2.7114,-1.37529 2.7114,-30.21828 v -31.30645 l 13.33763,-0.77347 c 7.3363,-0.42382 14.2827,-0.58275 15.4376,-0.36024 2.0524,0.39203 2.1043,2.31829 2.3755,87.86507 l 0.2755,87.46033 h -14.6313 -14.63023 v -8.12461 c 0,-4.46811 -0.2225,-8.12461 -0.498,-8.12461 -0.2755,0 -2.7813,2.4412 -5.5732,5.42594 -11.0394,11.8023 -29.6175,16.66244 -47.3067,12.37657 z m 29.2445,-27.02163 c 7.2993,-2.16678 15.462,-9.54123 18.8409,-17.01845 2.2812,-5.04768 2.5853,-7.30981 2.5853,-19.26045 0,-13.52088 0,-13.55372 -4.0401,-21.32233 -5.605,-10.7989 -12.4189,-15.61243 -24.3377,-17.19327 -8.9532,-1.18775 -17.0397,1.75779 -23.7509,8.65014 -7.1593,7.35326 -10.3856,15.38463 -11.0044,27.39884 -1.3933,27.02481 18.6078,45.60503 41.7069,38.74552 z m 175.62643,27.17633 c -13.9871,-2.48358 -25.6601,-6.97394 -36.6635,-14.10575 -11.0182,-7.14029 -10.8593,-6.45794 -4.3495,-18.72009 7.9922,-15.05298 7.224,-14.63234 15.9621,-8.75822 17.1075,11.49927 25.6474,14.39077 42.5514,14.40667 10.0233,0.01 12.0947,-0.32846 17.4306,-2.82899 7.0333,-3.29625 10.2257,-7.24307 11.9686,-14.79446 1.1263,-4.88027 1.0066,-5.89744 -1.211,-10.48316 -3.8345,-7.92117 -10.5669,-11.70058 -33.3005,-18.69041 -23.7105,-7.29074 -32.1678,-11.53742 -41.6264,-20.90169 -6.2185,-6.15597 -7.5101,-8.13309 -9.4787,-14.50838 -8.8504,-28.65227 6.7652,-55.33486 37.1869,-63.54423 7.6934,-2.07565 10.6209,-2.2918 24.4469,-1.80758 11.6338,0.40262 17.8152,1.16126 23.8324,2.90845 9.1587,2.65841 27.0343,11.65608 27.9614,14.07397 0.551,1.43356 -10.1324,23.44778 -11.9135,24.54971 -0.4133,0.25429 -3.6714,-1.43251 -7.2516,-3.74656 -10.2363,-6.61581 -23.4213,-10.45985 -35.8783,-10.45985 -8.8419,0 -11.1432,0.40262 -16.3467,2.84065 -8.6575,4.05912 -11.2767,8.14474 -11.2767,17.58848 v 7.42954 l 5.748,5.28503 c 5.2013,4.78385 7.1053,5.70566 20.0403,9.70333 24.0559,7.43378 33.3894,11.10829 41.3519,16.2757 12.4423,8.07482 17.7305,16.21638 20.1727,31.06169 2.6902,16.34987 -2.6096,32.16361 -14.4543,43.12993 -7.348,6.80335 -12.5493,9.51685 -24.1111,12.57895 -10.1176,2.67959 -30.0677,3.42127 -40.7914,1.51727 z m 138.8557,-0.19072 c -8.4298,-2.26531 -14.7002,-6.27994 -18.9458,-12.1297 -6.8563,-9.44798 -7.3839,-12.95721 -7.8894,-52.48467 l -0.4556,-35.47788 h -10.2023 -10.2014 v -12.45816 -12.45709 h 10.906 10.9048 l -0.7523,-17.24625 -0.7522,-17.2452 5.2839,-0.72049 c 2.9064,-0.39203 9.1153,-1.40814 13.7985,-2.25365 13.9807,-2.52491 12.6097,-4.47447 12.6097,17.93284 v 19.47023 l 15.978,0.29668 15.979,0.29667 -0.1483,9.20747 c -0.1059,5.06463 -0.2013,10.61242 -0.2755,12.32889 l -0.1165,3.12036 -15.9081,-0.41322 -15.9091,-0.41323 0.2649,31.41558 c 0.2966,34.45012 0.6357,36.4569 6.9866,41.09454 4.553,3.32486 16.6,3.18288 21.244,-0.25429 2.4221,-1.79064 3.47,-2.09049 3.7773,-1.07862 0.2331,0.77347 1.4304,5.58275 2.6563,10.69507 1.2259,5.11338 2.5291,10.07947 2.8968,11.03625 1.4674,3.8239 -16.2037,9.47341 -29.3029,9.36745 -3.5749,0 -9.1694,-0.77347 -12.4317,-1.64653 z m 102.8863,0.11655 c -11.9008,-2.69231 -22.2038,-8.53253 -31.3912,-17.79404 -9.4829,-9.5603 -14.1333,-18.08223 -16.7207,-30.6474 -6.4325,-31.23227 6.8415,-60.7163 32.9456,-73.17975 11.0012,-5.25323 17.6351,-6.75885 29.7764,-6.75885 28.7339,0 52.2219,15.89956 61.2567,41.46538 3.4043,9.63446 4.1884,29.37807 1.5925,40.09856 -3.8409,15.86036 -14.0189,30.64317 -26.6985,38.78049 -12.3585,7.92965 -35.2268,11.55013 -50.7608,8.03561 z m 28.7074,-28.05364 c 7.3416,-3.47637 12.1498,-8.5124 16.1475,-16.91249 3.0865,-6.48549 3.3513,-7.9413 3.3513,-18.41599 0,-10.50011 -0.2542,-11.91566 -3.3725,-18.41598 -6.5713,-13.72115 -15.8815,-19.99578 -29.6684,-19.99578 -16.7482,0 -27.5524,8.98707 -32.0947,26.69529 -3.1585,12.31618 -0.3391,28.11932 6.6455,37.28017 8.5876,11.25769 26.4113,15.72156 38.9913,9.76478 z m 215.5744,28.58341 c -24.9746,-3.75609 -42.011,-17.45604 -50.1028,-40.28928 -4.0919,-11.54695 -4.7256,-30.54357 -1.4198,-42.59062 6.4188,-23.39481 22.2389,-39.09306 44.7479,-44.40033 23.2306,-5.4768 50.267,3.90231 61.5448,21.35094 7.7061,11.92308 12.651,34.35158 10.3168,46.79384 l -0.7522,4.00827 -11.0437,-0.12715 c -6.0733,-0.10595 -25.8434,-0.10595 -43.9331,-0.10595 l -32.8904,0.10595 0.7417,4.06231 c 1.6338,8.93834 9.5687,18.5124 18.9023,22.80781 4.4331,2.04069 8.2931,2.82581 15.8211,3.21996 12.0789,0.63573 18.1501,-1.07862 28.1607,-7.93177 7.8883,-5.40051 6.5098,-6.04895 15.6537,7.35962 6.547,9.5995 6.5512,9.57089 -2.6679,15.47363 -13.896,8.89596 -35.0021,12.97415 -53.0812,10.2543 z m 44.2467,-12.50265 c -0.3496,-0.92181 -0.8688,-1.43887 -1.1581,-1.15491 -0.2861,0.28608 -0.1907,1.03836 0.2013,1.67091 1.0681,1.72918 1.6921,1.3933 0.9642,-0.51918 z m -7.7675,-66.03417 c -0.5086,-4.66624 -5.2363,-14.64612 -8.6459,-18.24434 -7.3374,-7.74 -20.7258,-10.37721 -31.6805,-6.23968 -3.3079,1.24921 -7.5397,3.85676 -9.4045,5.79467 -3.7678,3.91714 -8.3387,12.52384 -9.4501,17.79298 -0.6358,3.01017 -0.4133,3.49015 1.7811,3.87052 1.3774,0.2437 14.9353,0.40263 30.1282,0.36025 l 27.6245,-0.10596 z m -1326.85403,-8.92669 -0.177,-85.47261 39.717,0.10596 c 46.0148,0.10595 46.9881,0.2331 67.3411,10.04556 10.8378,5.22569 13.5373,7.09897 20.7594,14.40878 14.2183,14.39078 21.1686,32.34375 22.225,57.41051 0.7258,17.22083 -1.7571,30.44291 -8.2269,43.8091 -10.5117,21.71754 -27.7995,35.86038 -51.2882,41.95913 -8.1563,2.11804 -12.4325,2.3575 -49.55,2.77602 l -40.6234,0.4556 z m 76.2892,56.58512 c 19.5914,-4.61856 34.8846,-19.21276 39.764,-37.94662 2.2175,-8.51346 2.1875,-27.9392 -0.053,-36.63702 -4.1192,-15.96632 -14.2834,-28.80485 -27.8057,-35.12187 -10.4931,-4.90147 -15.5051,-5.68872 -36.842,-5.78831 l -19.7566,-0.10596 -0.2797,58.60886 -0.2797,58.60885 h 19.2376 c 13.1245,0 21.3928,-0.51918 26.0194,-1.61581 z m 202.8347,-56.8659 v -85.57962 h 39.8109 c 43.8359,0 48.0252,0.47679 60.4967,6.61475 13.603,6.6974 23.5169,18.53995 27.0956,32.36705 2.7037,10.44714 2.4308,29.7987 -0.552,39.16616 -4.0647,12.76437 -13.9577,23.97332 -26.6464,30.19286 -12.321,6.03836 -18.1991,6.9697 -44.1424,6.99195 h -23.5601 v 27.8947 27.8947 h -16.2487 -16.2494 z m 75.3319,1.5978 c 9.0098,-2.30557 14.4642,-6.40496 18.1762,-13.66392 5.5957,-10.94088 4.942,-26.63277 -1.4787,-35.49589 -1.8772,-2.59165 -5.5128,-5.58381 -8.8767,-7.30663 -6.08,-3.11296 -16.183,-4.17039 -39.8211,-4.17039 h -10.2912 l -0.2872,31.14434 -0.2871,31.14432 h 18.2049 c 12.769,0 20.1329,-0.49798 24.6615,-1.65183 z m 796.71573,23.94789 c 0,-33.01867 -0.2967,-60.82013 -0.6675,-61.78008 -0.5933,-1.56071 0.8688,-1.71329 13.8123,-1.44204 l 14.4819,0.30727 v 9.40983 c 0,5.17589 0.3178,9.70652 0.6781,10.06888 0.3602,0.36025 1.9019,-1.46217 3.4223,-4.05595 3.6512,-6.23119 11.6084,-13.45095 17.8915,-16.23544 3.8059,-1.68679 7.4084,-2.26001 14.4893,-2.30663 5.1833,0 9.7436,0.26489 10.1346,0.64632 0.392,0.39204 0.3602,7.2579 -0.106,15.2596 l -0.784,14.54758 -4.4809,-1.02776 c -13.133,-3.00593 -27.3024,3.92456 -33.6883,16.47809 -4.2826,8.41704 -4.9162,14.6387 -4.9162,48.25919 v 31.90403 h -15.1654 -15.1663 z m -977.12663,-8.75504 v -13.54102 l 34.1236,-0.11655 c 18.7679,-0.10595 35.2204,-0.18012 36.561,-0.24369 2.3818,-0.11655 2.4444,0.16953 2.7443,12.76225 0.2278,9.57937 -0.053,13.11084 -1.0834,13.7667 -0.765,0.48739 -17.355,0.89002 -36.8678,0.90061 h -35.4777 z m 259.5207,-90.22998 c -6.5244,-13.72538 -19.8151,-26.50245 -35.4516,-34.08139 -5.2194,-2.5302 -9.5096,-4.91948 -9.5338,-5.3094 -0.021,-0.39203 2.759,-2.2865 6.1849,-4.21487 27.7969,-15.6474 66.2343,-44.96401 94.1973,-71.84579 25.1306,-24.15905 54.6214,-61.24119 52.6956,-66.25984 -2.92,-7.60935 -56.905,-5.16614 -83.7914,3.79212 -9.9092,3.30165 -22.8918,9.71583 -33.0402,16.32381 -33.2538,21.65259 -53.3173,53.82669 -60.605,97.18654 -0.926,5.51177 -1.6842,11.72707 -1.6842,13.81226 v 3.79106 h -17.8743 -17.8742 v -3.19454 c 0,-6.57767 3.4199,-29.12483 5.9234,-39.05384 10.1676,-40.32436 35.1247,-76.33837 68.1037,-98.27661 4.0726,-2.70916 12.5324,-7.60363 18.7993,-10.87647 8.1362,-4.24899 10.9751,-6.22431 9.9279,-6.90772 -0.8064,-0.52659 -4.8792,-1.99714 -9.0498,-3.26827 -14.7189,-4.48634 -25.5882,-12.03551 -27.0903,-18.81544 -0.3931,-1.7738 -0.8699,-3.74911 -1.0585,-4.38961 -0.1897,-0.63996 -3.555,-2.03348 -7.4793,-3.09568 -17.0186,-4.6068 -32.9795,-19.08286 -29.9182,-27.13489 0.5997,-1.5783 1.091,-3.03115 1.091,-3.22865 0,-0.19708 -3.5465,-2.5694 -7.881,-5.27104 -8.4942,-5.29414 -19.8639,-16.34373 -22.942,-22.29616 -1.7829,-3.44777 -1.8388,-7.57873 -0.1632,-12.01442 0.3995,-1.05637 -0.9324,-2.76128 -3.8082,-4.87487 -5.7477,-4.22368 -16.7562,-18.83653 -18.4503,-24.49122 -1.0865,-3.62641 -1.0425,-5.2294 0.2469,-8.92224 l 1.5712,-4.50159 -6.6323,-9.82137 c -9.8657,-14.60914 -12.5033,-25.23894 -7.6095,-30.66552 1.4113,-1.56506 1.1163,-2.7278 -2.6456,-10.42774 -5.6185,-11.4998 -8.1912,-22.83897 -6.4079,-28.24245 0.7979,-2.41831 2.5363,-4.64791 4.4687,-5.73194 1.9473,-1.0925 2.9599,-2.39849 2.6353,-3.39913 -0.2903,-0.89426 -1.509,-4.306 -2.7095,-7.58297 -3.2051,-8.74952 -3.0006,-18.65735 0.5308,-25.74508 4.2338,-8.49631 9.6976,-10.95827 28.3363,-12.7683 7.3681,-0.71519 8.005,-0.99173 10.7888,-4.68499 3.9031,-5.17759 5.3598,-6.24466 11.2635,-8.25059 6.9925,-2.37582 16.4655,-3.81564 25.6199,-3.89384 7.4687,-0.0636 7.9487,-0.2225 10.1915,-3.37243 4.352,-6.11168 10.3883,-7.90708 26.5851,-7.90708 14.0193,0 14.3383,-0.053 17.3326,-2.91015 4.2942,-4.09664 7.9705,-5.21456 17.1478,-5.21456 5.5726,0 10.66,0.84128 16.775,2.77262 l 8.7768,2.77262 3.7569,-3.29858 c 2.0662,-1.81426 5.0758,-3.62969 6.6881,-4.03433 4.5029,-1.13011 15.1114,1.11168 26.1393,5.52384 l 9.9832,3.99418 4.6275,-2.2402 c 2.5453,-1.23215 6.3019,-2.22993 8.348,-2.21742 5.8406,0.0318 17.4829,4.65427 25.9907,10.31024 7.2973,4.85124 7.998,5.09546 11.2487,3.92 9.9011,-3.58031 20.8748,0.77559 34.4136,13.65979 8.6046,8.18913 9.1386,8.51357 12.7411,7.73776 10.8815,-2.34318 28.4795,11.39226 44.2805,34.56265 11.55553,16.9446 25.63583,48.77446 27.93403,63.14594 0.3708,2.3202 1.0277,4.21859 1.4547,4.21859 0.4344,0 1.8849,-4.26553 3.2348,-9.47882 4.6144,-17.83228 16.9581,-44.29087 27.668,-59.31006 16.1157,-22.59749 32.917,-35.45913 44.0062,-33.68598 4.3134,0.68977 4.5274,0.5658 11.6338,-6.71127 12.2643,-12.5604 27.1085,-18.31078 35.7428,-13.84606 2.8364,1.46663 3.2369,1.34743 7.8004,-2.31861 6.6836,-5.37031 19.6662,-11.21233 26.478,-11.91545 4.6313,-0.47785 6.5247,-0.13032 10.035,1.84266 l 4.3271,2.43166 6.8998,-2.70068 c 15.9208,-6.23088 17.8672,-6.75811 24.9577,-6.75906 6.3668,-6.6e-4 7.8025,0.40686 12.0968,3.43357 l 4.8718,3.43441 8.487,-2.72801 c 7.0184,-2.25641 9.9078,-2.63573 16.7143,-2.19411 8.7604,0.56791 13.0028,2.18044 17.0005,6.46101 2.3151,2.4787 2.8554,2.58593 8.1246,1.61051 3.1044,-0.57427 9.5677,-0.80843 14.3633,-0.51918 9.7012,0.58487 15.2998,2.84256 20.4248,8.23777 1.7303,1.82072 3.5411,3.0658 4.0253,2.76669 1.6709,-1.03306 23.7412,1.78618 30.623,3.91174 5.7057,1.76224 7.6754,3.041 11.3509,7.36968 l 4.4469,5.23755 10.0361,1.25186 c 5.5202,0.6887 11.8086,1.74984 13.9743,2.35855 12.9869,3.65067 17.8269,18.38558 11.9486,36.38591 l -2.5101,7.68797 3.2401,3.23957 c 4.9036,4.90347 5.4026,10.83408 1.8139,21.5389 -1.5851,4.72643 -4.3346,11.13669 -6.1104,14.24487 l -3.2295,5.65141 2.3713,3.20693 c 1.9315,2.61274 2.2738,4.22007 1.8457,8.6761 -0.6675,6.91196 -5.7883,17.37933 -12.1509,24.8252 l -4.9247,5.76266 1.7715,3.42562 c 2.33,4.50679 2.1255,8.18787 -0.7735,13.92235 -3.0801,6.09133 -12.0375,17.16625 -17.3119,21.40423 -4.0793,3.27824 -4.1121,3.36692 -2.5026,6.59335 0.9641,1.94173 1.3594,4.4768 0.9641,6.2401 -1.6465,7.30738 -15.5848,21.25557 -26.94,26.95859 -3.079,1.54673 -5.7682,2.96366 -5.9758,3.14866 -0.2014,0.18436 0.4767,1.78247 1.5225,3.55012 1.8595,3.1477 1.8394,3.31521 -0.9854,8.13213 -4.8029,8.19718 -14.2911,14.86216 -28.0557,19.71012 -6.8987,2.42964 -8.3969,3.36639 -8.4001,5.25376 -0.011,3.93432 -4.0666,9.19804 -10.0032,12.97172 -6.4442,4.09537 -17.7792,8.82084 -23.8452,9.94057 -2.2345,0.41216 -4.0623,1.14802 -4.0623,1.63467 0,0.48633 5.4843,3.89977 12.187,7.58477 15.7459,8.65703 24.4618,14.77379 35.8858,25.18723 30.657,27.94217 49.4448,66.82173 54.8136,113.42909 2.0682,17.96145 3.4785,25.33802 5.694,29.79023 1.1856,2.38399 7.1774,9.29223 13.3142,15.35284 6.1369,6.06061 10.8763,11.30113 10.5309,11.64548 -0.3497,0.33906 -2.0036,0.62514 -3.6872,0.62514 -1.6847,0 -9.5254,1.26616 -17.4232,2.81521 -12.3533,2.42107 -16.0267,2.71986 -26.2768,2.13181 -15.4736,-0.89002 -25.7947,-1.82136 -26.8118,-2.42636 -0.445,-0.26489 -0.8159,-2.30134 -0.8159,-4.52427 0,-13.42658 -6.4993,-23.8451 -18.6777,-29.9375 -6.6784,-3.34075 -8.6099,-3.80801 -15.7417,-3.80801 -7.5334,0 -27.5218,2.79932 -39.4565,5.52554 l -5.088,1.16232 -7.9116,-7.95084 c -9.3664,-9.41303 -23.7466,-19.29118 -35.4429,-24.34734 -14.0189,-6.06167 -23.7879,-8.15216 -40.9758,-8.77093 -13.3683,-0.4874 -16.8118,-0.2331 -25.8127,1.84467 -17.8777,4.13117 -36.9326,15.45243 -50.1611,29.80401 -6.2651,6.79593 -18.7805,26.20471 -22.4189,34.76586 -1.6286,3.83132 -3.2528,6.96334 -3.6099,6.96228 -0.3603,-0.002 -0.6569,-5.7597 -0.6675,-12.79509 0,-12.42637 -0.1272,-13.00594 -3.7911,-20.30834 -4.2191,-8.40857 -11.1072,-14.52534 -18.8398,-16.7292 -6.8086,-1.94003 -34.8549,-2.63615 -45.21523,-1.121 -9.4352,1.37953 -17.8894,4.90783 -22.8057,9.51792 l -2.9254,2.74317 -7.5016,-6.92202 c -30.178,-27.84279 -74.3168,-32.87882 -113.7429,-12.97628 -20.1743,10.1833 -43.5709,30.79256 -56.3195,49.61012 -3.7165,5.48527 -7.1521,10.21721 -7.6347,10.51494 -0.4821,0.29668 -1.7366,-1.26404 -2.7865,-3.47319 z m 556.80163,-29.92903 c 1.8415,-1.34774 2.0852,-2.79403 1.9581,-11.64548 -0.159,-10.90063 -2.6796,-29.85169 -5.3815,-40.39206 -5.4747,-21.36153 -20.3422,-46.89334 -36.6614,-62.95735 -25.4006,-25.00341 -53.3864,-36.76088 -94.1005,-39.53287 -25.5489,-1.73957 -40.7279,0.053 -42.6415,5.04535 -4.3218,11.26108 51.7112,72.49147 97.3067,106.33341 28.2094,20.93665 56.0363,38.47534 66.9941,42.22296 8.345,2.85336 9.75,2.95719 12.526,0.9218 z m -279.0105,-50.98541 c 21.9887,-3.11825 38.0165,-8.19348 52.3766,-16.58403 8.95,-5.22887 19.1905,-15.70038 22.9953,-23.51242 2.8587,-5.86883 3.1659,-7.55892 3.1659,-17.39204 0,-10.45869 -0.1695,-11.22824 -4.182,-19.35136 -12.1901,-24.6563 -43.3185,-44.26524 -81.9189,-51.60398 -10.7819,-2.0498 -14.964,-2.29402 -31.4156,-1.83386 -16.725,0.46832 -20.45673,0.92498 -31.43573,3.84965 -25.1653,6.70418 -43.8632,16.93389 -58.0949,31.78557 -12.0556,12.57926 -16.9848,23.04929 -16.9043,35.90244 0.042,6.41047 0.6188,8.65947 3.9248,15.24773 10.1515,20.22994 32.1922,33.97544 66.3149,41.35731 23.31213,5.04238 49.43433,5.78407 75.17393,2.13499 z M 860.22827,588.41458 c 18.134,-2.67758 39.371,-10.17049 50.4703,-17.80696 9.3992,-6.46706 20.0889,-17.61084 27.1158,-28.26703 3.8207,-5.79455 6.9464,-10.98719 6.9464,-11.53921 0,-1.32391 -27.7188,-27.44609 -42.7005,-40.24076 -17.1999,-14.68893 -47.2011,-36.7843 -68.3396,-50.33071 -10.1269,-6.48984 -19.6313,-12.6278 -21.1208,-13.63988 -5.7221,-3.88832 -41.3287,-23.86174 -56.0602,-31.44683 -8.4902,-4.37148 -15.4368,-8.28757 -15.4368,-8.70227 0,-1.60246 10.3021,1.31754 30.9987,8.78608 70.4951,25.43899 123.6139,55.50884 183.9794,104.14852 9.2467,7.4501 11.8468,7.2384 20.587,-1.67536 15.231,-15.53413 19.4363,-30.92532 15.177,-55.5492 -3.4033,-19.67357 -13.6862,-44.75209 -25.6718,-62.61151 -4.8496,-7.22547 -15.1113,-20.29319 -15.5732,-19.83122 -0.159,0.15999 -1.049,3.90379 -1.9644,8.31998 -0.9218,4.4163 -2.1191,8.47426 -2.6627,9.0177 -0.5933,0.59547 -2.8374,-1.74475 -5.6389,-5.88737 -9.8824,-14.60819 -25.7533,-33.4161 -28.1985,-33.4161 -0.4048,0 -1.0761,3.38281 -1.4913,7.51727 -0.4154,4.13457 -1.391,8.38706 -2.1682,9.4501 -1.2907,1.7651 -2.1982,1.13086 -10.4588,-7.30897 -8.5513,-8.73691 -16.6822,-15.84563 -24.3756,-21.31131 l -3.414,-2.42541 0.1642,9.36788 c 0.1081,6.13786 -0.2585,9.51517 -1.0627,9.7952 -0.675,0.23522 -4.3991,-2.00392 -8.2762,-4.97552 -3.8771,-2.97162 -10.1496,-7.27857 -13.9391,-9.5709 -7.3967,-4.47457 -20.3237,-10.50604 -21.0216,-9.80812 -0.2342,0.23416 0.7671,3.32465 2.2236,6.86841 2.2916,5.5748 3.5532,12.40137 2.2916,12.40137 -0.2246,0 -5.9525,-2.64718 -12.7286,-5.88261 -13.2182,-6.3113 -32.0172,-13.2382 -33.0702,-12.18533 -0.3538,0.35389 0.4535,2.49163 1.7925,4.75133 3.4462,5.81427 5.519,12.04208 4.2658,12.8165 -0.569,0.35177 -5.7834,-1.13965 -11.5874,-3.31416 -10.1193,-3.79138 -32.7295,-9.57693 -33.6866,-8.61984 -0.2532,0.25323 0.3454,1.56961 1.3282,2.92625 4.7102,6.49778 7.1813,10.69391 7.1813,12.19455 0,2.02204 1.1947,2.09123 -12.1074,-0.70142 -11.6403,-2.44384 -35.1444,-3.39765 -41.3131,-1.67652 l -3.0478,0.84976 5.4717,5.6495 c 8.0432,8.30431 7.7112,8.74232 -6.1469,8.11168 -11.3009,-0.51388 -35.7651,0.71414 -36.9038,1.85251 -0.9748,0.97479 7.1882,20.32 12.1319,28.75314 2.6038,4.44163 4.4955,8.69772 4.2037,9.45805 -0.5044,1.31564 -10.0689,1.11433 -17.3469,-0.36554 -1.3406,-0.27231 -2.4374,-0.20555 -2.4374,0.14939 0,1.53762 11.635,17.85921 17.2015,24.13046 3.349,3.77294 7.1901,8.39616 8.5356,10.27389 2.2651,3.16085 2.3053,3.46981 0.5414,4.16763 -1.0479,0.41428 -4.3422,0.83598 -7.3212,0.9377 -2.979,0.10595 -6.6351,0.55414 -8.1247,1.00551 -2.5601,0.77664 -1.7909,1.72091 14.0676,17.27358 12.788,12.54155 16.4098,16.67844 15.2366,17.4036 -0.8466,0.52341 -4.4958,1.2865 -8.1094,1.69633 -10.4886,1.18945 -10.5661,1.62386 -1.5608,8.76087 7.1331,5.65321 10.9595,8.24974 27.2183,18.4696 2.2342,1.40443 4.0623,3.02416 4.0623,3.59939 0,1.31808 -6.6741,4.74836 -12.7993,6.57831 l -4.6748,1.39669 5.7581,3.67854 c 7.7157,4.92922 18.8368,10.55902 30.6735,15.52777 5.3624,2.2509 9.9018,4.82899 10.0879,5.72897 0.3729,1.80346 -3.7934,4.28153 -12.1649,7.23576 l -5.3269,1.87984 4.5914,2.34235 c 5.4014,2.75556 36.4893,10.8861 41.6243,10.8861 8.0819,0 7.1911,4.45667 -1.9881,9.94692 -3.2724,1.9573 -5.9498,3.93241 -5.9498,4.38896 0,0.45667 0.144,0.83069 0.321,0.83069 0.1769,0 4.9299,1.01505 10.5621,2.25546 5.9878,1.31882 16.8531,2.57046 26.1637,3.01399 8.7577,0.41746 16.2851,1.12036 16.7275,1.56272 0.4429,0.44289 -1.7754,3.41652 -4.9282,6.60915 -4.0266,4.07724 -5.2974,6.00191 -4.2697,6.46726 2.4706,1.11899 35.4607,-0.37084 47.4664,-2.14368 z m 374.85483,1.80017 c 0,-0.37508 -2.6595,-3.30716 -5.9081,-6.51621 -3.2496,-3.20905 -5.659,-6.23915 -5.3528,-6.73354 0.3073,-0.4948 5.5234,-0.90803 11.5957,-0.91968 16.1231,-0.0318 41.9167,-3.88271 41.9114,-6.25864 0,-0.41852 -2.2261,-2.16646 -4.9438,-3.88356 -6.1666,-3.89595 -9.1524,-7.97691 -6.885,-9.41164 0.8477,-0.53613 3.0017,-0.9822 4.7892,-0.99173 7.4762,-0.0424 42.7835,-10.28853 43.5697,-12.64464 0.2013,-0.60606 -2.794,-2.44491 -6.6582,-4.08678 -7.9583,-3.3825 -10.0372,-5.17007 -7.9467,-6.83493 0.7523,-0.59971 6.7293,-3.4002 13.2836,-6.22431 13.0844,-5.63838 23.2105,-11.03921 28.0537,-14.96346 l 3.1383,-2.54259 -6.5861,-2.46292 c -3.6215,-1.35463 -7.3713,-3.33058 -8.3302,-4.39087 -1.6412,-1.81341 -1.1104,-2.31786 8.9267,-8.48602 11.7928,-7.24699 22.1965,-14.81226 26.0723,-18.95996 l 2.527,-2.70386 -3.6099,-0.68871 c -7.101,-1.35548 -12.884,-3.08519 -13.4668,-4.02776 -0.3285,-0.52659 5.9748,-7.40687 13.9998,-15.28831 8.0261,-7.88144 15.1473,-15.42669 15.8243,-16.76723 1.2132,-2.39924 1.1263,-2.4377 -5.5764,-2.45222 -7.2822,-0.0106 -11.6836,-0.81903 -11.6836,-2.13117 0,-0.44501 1.5851,-2.77167 3.5209,-5.16943 1.9368,-2.39775 6.7525,-8.34859 10.7035,-13.2241 3.95,-4.8755 8.5294,-11.34054 10.177,-14.36682 l 2.9943,-5.50234 -4.2192,0.65268 c -13.7921,2.13541 -15.5933,2.17525 -15.5933,0.34435 0,-0.97584 2.1657,-5.79191 4.8125,-10.70163 7.1816,-13.32275 11.9538,-25.81227 10.2617,-26.85793 -2.3607,-1.45932 -16.1147,-2.4608 -32.1361,-2.34012 -8.4901,0.0636 -15.4365,-0.0742 -15.4365,-0.31151 0,-0.23522 2.4327,-3.3524 5.4068,-6.92604 3.8631,-4.64124 5.0233,-6.73883 4.0623,-7.34182 -3.1797,-1.99576 -23.0335,-1.6512 -35.6876,0.61984 -20.2798,3.63848 -20.9526,3.33757 -14.376,-6.43453 2.1011,-3.12238 3.5399,-5.95741 3.1966,-6.30018 -1.1793,-1.17948 -19.3028,3.22527 -31.0384,7.54366 -11.0998,4.08424 -13.8938,4.46928 -13.8938,1.91429 0,-0.59971 1.6518,-4.66593 3.6713,-9.03614 l 3.6714,-7.94586 -11.5258,4.14071 c -6.3382,2.2775 -16.2693,6.37254 -22.0693,9.10013 -5.7989,2.7277 -11.0394,4.95943 -11.6455,4.95943 -1.8404,0 -1.193,-4.52607 1.6286,-11.37456 1.4727,-3.57481 2.6795,-6.62164 2.6827,-6.77062 0,-2.6816 -22.6796,9.09261 -31.9527,16.55204 -10.0668,8.09865 -11.2037,8.68034 -12.2028,6.24381 -0.4345,-1.06834 -0.7947,-5.43018 -0.7947,-9.69285 0,-4.86438 -0.4026,-7.516 -1.0829,-7.121 -4.8547,2.82083 -15.8581,12.06072 -24.628,20.68109 -7.5662,7.43717 -10.8763,10.03391 -11.7175,9.19253 -0.6464,-0.64527 -1.7207,-4.52819 -2.3904,-8.62917 -0.6675,-4.10098 -1.3795,-7.6707 -1.5776,-7.93272 -1.2779,-1.69051 -18.5612,18.56591 -27.9414,32.74848 -2.563,3.87455 -4.7923,6.1494 -5.8296,5.94946 -1.9824,-0.38143 -4.2361,-7.17853 -4.4119,-13.30589 l -0.1272,-4.33323 -5.5404,5.94204 c -15.0657,16.15873 -32.2303,51.60663 -36.5649,75.51118 -1.5862,8.74614 -1.5915,28.7364 -0.011,33.53 3.6692,11.12016 15.5849,26.47269 23.4372,30.1989 4.307,2.04355 5.3528,1.59113 14.7796,-6.39002 49.5529,-41.95585 105.5986,-73.84525 176.9845,-100.70276 20.1007,-7.56252 28.1723,-10.27804 33.3567,-11.22252 4.4883,-0.81797 -1.3753,2.80992 -31.4103,19.43105 -59.2795,32.80538 -100.2871,61.1116 -140.2861,96.83371 -20.2649,18.09844 -30.5976,28.48084 -29.9714,30.11403 0.943,2.44777 13.2189,19.28863 18.0452,24.7489 16.4865,18.65185 45.7364,30.59941 81.2576,33.19107 14.484,1.05636 34.6652,1.15151 34.6652,0.16317 z"
       id="path1"
       sodipodi:nodetypes="csscccccsssssscssscssccsssssssssssssssssssssscsssscssscsscsscccssscssssscccccsssssscsssssssssssssssssscssssssssccccsssssscccccsssscccccssssscsssccssssssssssssssscccccsccccccccsscccccsssssssssssscssscssssssccccssssssssscsssssscssssssssssccccssssssssssssssssssscssscccssssssscsssssssscssssssssssssssscsssssssssscccccccccssscccsscccssssssssssssssssssssssssssssssscsscsssssssssssssssssscsccsssssssccssssscccsssccssssssccccccssssscccsscsscssssssccsssccccccsssssccsssssssssscccssssssssssssssssscssssssssssssssssscssscssssssssssssssssscssscssssssssscssscssscssscsssssssssscssssssssssssssssscsssssssssssscsssssssssssssssssssssssssssssssssssssssssssssssssscssssssssssssssssscssssssssssssssssssscsssscssssssssssscsssssssssssscsssscssssssssscsssssssssssssscsssscssssssssssscsscssssssssscc" /></g></svg>
